<?xml version="1.0" encoding="utf-8"?>
<!-- Generator: Adobe Illustrator 22.0.1, SVG Export Plug-In . SVG Version: 6.00 Build 0)  -->
<svg version="1.1" id="Layer_1" xmlns="http://www.w3.org/2000/svg" xmlns:xlink="http://www.w3.org/1999/xlink" x="0px" y="0px"
	 viewBox="0 0 220 68.8" style="enable-background:new 0 0 220 68.8;" xml:space="preserve">
<style type="text/css">
	.st0{fill:#6B52A4;}
	.st1{fill:#FFFFFF;}
	.st2{opacity:0.6;}
</style>
<path class="st0" d="M0,68.8h220V0H0V68.8L0,68.8z"/>
<g>
	<g>
		<path class="st1" d="M128.3,11.4h-20.8v27.1h5.4V16.8h14.6c4.8,0,6.4,1.8,6.4,7.2v14.5h5.4V22.3C139.4,14.4,136.3,11.4,128.3,11.4
			 M78.1,11.4c-7.9,0-11,3.1-11,11v16.1h19.4v-5.4h-14V24c0-5.4,1.6-7.2,6.4-7.2h14.6v21.7H99V11.4H78.1z M26.7,22.3v16.1h31.8v-5.4
			H32.1v-9.9c0-4.8,1.8-6.4,7.3-6.4h19.1v-5.4H37.7C29.8,11.4,26.7,14.4,26.7,22.3z M174.6,16.8h19.1v-5.4h-20.8c-8,0-11,3.1-11,11
			v16.1h31.8v-5.4h-26.4v-9.9C167.3,18.4,169.2,16.8,174.6,16.8z M147.9,38.5h5.4V11.4h-5.4V38.5z"/>
	</g>
</g>
<g class="st2">
	<path class="st1" d="M26.1,58.5v-0.9h1.2v-8.5h-1.2v-0.9h4.7v0.9h-1.2v8.5h1.2v0.9H26.1z"/>
	<path class="st1" d="M40,48.2h2.2l2.7,4.8c0.1,0.2,0.3,0.5,0.4,0.7c0,0.1,0.2,0.5,0.2,0.5h0.1l-0.1-1c0-0.7,0-0.8,0-1.2v-3.8h2.1
		v10.3h-1.9l-2.8-5c-0.2-0.4-0.2-0.4-0.8-1.7H42c0,0.3,0.1,1.6,0.1,1.9v4.8H40V48.2z"/>
	<path class="st1" d="M64.5,48.2v1.9h-2.6v8.4h-2.4v-8.4h-2.6v-1.9H64.5z"/>
	<path class="st1" d="M73.6,48.2h7v1.9h-4.7v2.2h3.2v1.9h-3.2v2.4h5v1.9h-7.3V48.2z"/>
	<path class="st1" d="M92.7,58.5h-2.3V48.2h3.4c1.7,0,3.8,0.2,3.8,3c0,1.3-0.5,2.3-2,2.7l2.3,4.6h-2.5l-2-4.2h-0.8V58.5z M92.7,52.6
		c1.3,0,1.5,0,1.8-0.1c0.7-0.3,0.8-0.8,0.8-1.4c0-0.7-0.2-1.1-0.7-1.2c-0.4-0.1-0.6-0.1-1.9-0.1V52.6z"/>
	<path class="st1" d="M112.2,48.2l3,10.3H113l-0.5-2.1h-3.2l-0.5,2.1h-2.2l2.9-10.3H112.2z M110.9,50L110.9,50l-1.2,4.7h2.3
		L110.9,50z"/>
	<path class="st1" d="M124.2,51.7c0-2.4,1.3-3.7,3.7-3.7c0.6,0,1.6,0.1,2.3,0.7c0.9,0.7,1,2,1.1,2.8H129c0-0.5,0-1.6-1.2-1.6
		c-0.3,0-0.6,0.1-0.9,0.3c-0.4,0.3-0.4,0.8-0.4,1.1v3.9c0,0.6,0,1.6,1.3,1.6c0.9,0,1.2-0.8,1.2-1.9h2.3c0,0.7,0,0.8-0.1,1.3
		c-0.1,0.4-0.2,1.2-1.1,1.8c-0.7,0.6-1.8,0.7-2.3,0.7c-1.2,0-2-0.3-2.7-0.9c-0.4-0.4-1-1-1-3.1V51.7z"/>
	<path class="st1" d="M148,48.2v1.9h-2.6v8.4h-2.4v-8.4h-2.6v-1.9H148z"/>
	<path class="st1" d="M156.4,58.5v-0.9h1.2v-8.5h-1.2v-0.9h4.7v0.9h-1.2v8.5h1.2v0.9H156.4z"/>
	<path class="st1" d="M172.4,58.5l-3.2-10.3h2.3l1.6,5.6c0.2,0.8,0.4,1.4,0.5,1.8h0.1c0.2-0.6,0.3-1.2,0.5-1.9l1.5-5.5h2.3
		l-3.1,10.3H172.4z"/>
	<path class="st1" d="M187,48.2h7v1.9h-4.7v2.2h3.2v1.9h-3.2v2.4h5v1.9H187V48.2z"/>
</g>
</svg>
